<?xml version="1.0" encoding="UTF-8" standalone="no"?><!DOCTYPE svg PUBLIC "-//W3C//DTD SVG 1.1//EN" "http://www.w3.org/Graphics/SVG/1.1/DTD/svg11.dtd"><svg width="100%" height="100%" viewBox="0 0 834 417" version="1.1" xmlns="http://www.w3.org/2000/svg" xmlns:xlink="http://www.w3.org/1999/xlink" xml:space="preserve" xmlns:serif="http://www.serif.com/" style="fill-rule:evenodd;clip-rule:evenodd;stroke-linejoin:round;stroke-miterlimit:2;"><rect id="logo-small" x="0" y="0" width="833.333" height="416.667" style="fill:none;"/><clipPath id="_clip1"><rect x="0" y="0" width="833.333" height="416.667"/></clipPath><g clip-path="url(#_clip1)"><g><path d="M700.594,211.555l44.653,2.172l88.086,117.945l-71.934,-28.773l-80.486,-94.466l0,69.221l24.431,16.015l-94.329,0l24.43,-26.602l0,-133.961l21.173,-0l-44.789,-31.489l104.102,0c48.861,0 73.291,16.74 73.291,50.219c0,10.406 -3.596,19.635 -10.79,27.688c-7.193,8.053 -17.395,14.794 -30.606,20.223c-13.211,5.429 -28.955,9.365 -47.232,11.808Zm-19.681,-11.536l11.673,-0.951c17.735,-3.167 30.651,-8.188 38.749,-15.065c8.099,-6.877 12.148,-16.378 12.148,-28.503c-0,-12.577 -2.782,-21.784 -8.347,-27.62c-5.565,-5.836 -14.274,-8.754 -26.127,-8.754l-28.096,-0l0,80.893Z" style="fill:#fff;fill-rule:nonzero;"/><path d="M565.471,181.815l27.959,27.417l-29.859,28.095l-27.96,-27.416l29.86,-28.096Z" style="fill:#ffcd56;fill-rule:nonzero;"/><path d="M282.871,32.678l-24.956,28.129l0,355.83l-85.673,-76.876l-0,-53.331c13.903,-8.716 24.79,-20.105 32.696,-34.128c9.356,-16.593 14.138,-36.14 14.138,-58.691c0,-31.528 -10.125,-56.014 -29.805,-73.687c-5.093,-4.573 -10.768,-8.571 -17.029,-11.978l-0,-66.99l-45.328,-30.68l122.86,0l33.097,22.402Z" style="fill:#e61a1a;"/><path d="M386.255,301.471l-0,109.74l-85.674,-81.727l0,-298.804l-45.327,-30.68l175.83,-0l-44.829,50.531l-0,44.056l-70.811,0l36.342,29.576l-0.314,-0l-0,139.853l-33.136,37.455l67.919,0Z" style="fill:#e61a1a;"/><path d="M209.425,193.611c-0,-28.412 -8.868,-50.58 -26.602,-66.505c-17.735,-15.925 -43.252,-23.888 -76.55,-23.888l-105.459,-0l40.854,31.217l-17.237,0.271l-0,133.962l-24.431,26.602l98.944,-0c23.526,-0 43.523,-4.14 59.991,-12.419c16.468,-8.279 29,-20.042 37.596,-35.289c8.596,-15.246 12.894,-33.23 12.894,-53.951Zm-47.504,9.094c-0,25.335 -4.705,44.111 -14.116,56.326c-9.41,12.215 -24.566,18.323 -45.468,18.323c-6.967,0 -13.21,-0.362 -18.73,-1.086c-5.519,-0.724 -10.089,-1.447 -13.708,-2.171l-0,-153.099l32.71,0c19.997,0 34.881,6.877 44.653,20.63c9.773,13.754 14.659,34.113 14.659,61.077Z" style="fill:#fff;fill-rule:nonzero;"/><path d="M426.272,212.264l44.654,2.172l60.531,81.334l-51.299,0.096l-73.566,-86.724l-0,69.22l24.43,16.016l-94.329,0l24.43,-26.602l0,-133.962l21.174,0l-44.79,-31.488l104.102,0c48.861,0 73.292,16.74 73.292,50.219c-0,10.405 -3.597,19.635 -10.791,27.688c-7.193,8.053 -17.395,14.794 -30.606,20.223c-13.21,5.429 -28.955,9.365 -47.232,11.808Zm-19.68,-11.537l11.672,-0.95c17.735,-3.167 30.651,-8.189 38.75,-15.065c8.098,-6.877 12.147,-16.378 12.147,-28.503c0,-12.577 -2.782,-21.784 -8.347,-27.62c-5.565,-5.836 -14.274,-8.754 -26.127,-8.754l-28.095,-0l-0,80.892Z" style="fill:#fff;fill-rule:nonzero;"/></g></g></svg>